HIERARCHY
ROOT Hips
{
	OFFSET 0.00000 0.00000 0.00000
	CHANNELS 6 Xposition Yposition Zposition Zrotation Yrotation Xrotation 
	JOINT LHipJoint
	{
		OFFSET 0 0 0
		CHANNELS 3 Zrotation Yrotation Xrotation
		JOINT LeftHip
		{
			OFFSET 1.58161 -1.81893 0.78828
			CHANNELS 3 Zrotation Yrotation Xrotation
			JOINT LeftKnee
			{
				OFFSET 2.53374 -6.96141 0.00000
				CHANNELS 3 Zrotation Yrotation Xrotation
				JOINT LeftAnkle
				{
					OFFSET 2.63509 -7.23986 0.00000
					CHANNELS 3 Zrotation Yrotation Xrotation
					JOINT LeftToe
					{
						OFFSET 0.14115 -0.38781 2.05350
						CHANNELS 3 Zrotation Yrotation Xrotation
						End Site
						{
							OFFSET 0.00000 -0.00000 1.05543
						}
					}
				}
			}
		}
	}
	JOINT RHipJoint
	{
		OFFSET 0 0 0
		CHANNELS 3 Zrotation Yrotation Xrotation
		JOINT RightHip
		{
			OFFSET -1.11138 -1.81893 0.78828
			CHANNELS 3 Zrotation Yrotation Xrotation
			JOINT RightKnee
			{
				OFFSET -2.58392 -7.09926 0.00000
				CHANNELS 3 Zrotation Yrotation Xrotation
				JOINT RightAnkle
				{
					OFFSET -2.66423 -7.31992 0.00000
					CHANNELS 3 Zrotation Yrotation Xrotation
					JOINT RightToe
					{
						OFFSET -0.18831 -0.51739 2.12114
						CHANNELS 3 Zrotation Yrotation Xrotation
						End Site
						{
							OFFSET -0.00000 -0.00000 1.09845
						}
					}
				}
			}
		}
	}
	JOINT lowerback
	{
		OFFSET 0 0 0
		CHANNELS 3 Zrotation Yrotation Xrotation
		JOINT Chest
		{
			OFFSET -0.01511 1.97958 -0.08829
			CHANNELS 3 Zrotation Yrotation Xrotation
			JOINT Chest2
			{
				OFFSET 0.08344 1.97334 -0.04330
				CHANNELS 3 Zrotation Yrotation Xrotation
				JOINT lowerneck
				{
					OFFSET 0 0 0
					CHANNELS 3 Zrotation Yrotation Xrotation
					JOINT Neck
					{
						OFFSET 0.00559 1.76246 0.31246
						CHANNELS 3 Zrotation Yrotation Xrotation
						JOINT Head
						{
							OFFSET -0.07011 1.80354 -0.30524
							CHANNELS 3 Zrotation Yrotation Xrotation
							End Site
							{
								OFFSET -0.02385 1.83547 -0.13906
							}
						}
					}
				}
				JOINT LeftCollar
				{
					OFFSET 0 0 0
					CHANNELS 3 Zrotation Yrotation Xrotation
					JOINT LeftShoulder
					{
						OFFSET 3.20667 1.30156 -0.60240
CHANNELS 3 Zrotation Xrotation Yrotation
						JOINT LeftElbow
						{
OFFSET 0 -4.956630 0.000000
CHANNELS 3 Zrotation Xrotation Yrotation
							JOINT LeftWrist
							{
OFFSET 0 -3.381770 0.000000
CHANNELS 3 Zrotation Xrotation Yrotation
								JOINT lhand
								{
									OFFSET 0 0 0
CHANNELS 3 Zrotation Xrotation Yrotation
									JOINT LFingers
									{
OFFSET 0 -0.662910 0.000000
CHANNELS 3 Zrotation Xrotation Yrotation
										End Site
										{
OFFSET 0 -0.534450 0.000000
										}
									}
								}
								JOINT LThumb
								{
OFFSET 0 0.000000 0.000000
CHANNELS 3 Zrotation Xrotation Yrotation
									End Site
									{
OFFSET 0 -0.542610 0.542610
									}
								}
							}
						}
					}
				}
				JOINT RightCollar
				{
					OFFSET 0 0 0
					CHANNELS 3 Zrotation Yrotation Xrotation
					JOINT RightShoulder
					{
						OFFSET -3.06877 1.34672 -0.60964
CHANNELS 3 Zrotation Xrotation Yrotation
						JOINT RightElbow
						{
OFFSET 0 -5.083650 0.000000
CHANNELS 3 Zrotation Xrotation Yrotation
							JOINT RightWrist
							{
OFFSET 0 -3.359840 0.000000
CHANNELS 3 Zrotation Xrotation Yrotation
								JOINT rhand
								{
									OFFSET 0 0 0
CHANNELS 3 Zrotation Xrotation Yrotation
									JOINT RFingers
									{
OFFSET 0 -0.820760 0.000000
CHANNELS 3 Zrotation Xrotation Yrotation
										End Site
										{
OFFSET 0 -0.661720 0.000000
										}
									}
								}
								JOINT RThumb
								{
OFFSET 0 0.000000 0.000000
CHANNELS 3 Zrotation Xrotation Yrotation
									End Site
									{
OFFSET 0 -0.671820 0.671820
									}
								}
							}
						}
					}
				}
			}
		}
	}
}
MOTION
Frames: 7
Frame Time: 0.008333333333333333
-1.906937 17.506882 -2.079982 15.834428 26.043209 69.803672 0.000000 0.000000 0.000000 -1.997268 -12.663072 -35.141145 3.266271 11.113896 32.665310 0.398686 -2.454915 13.081132 0.624340 -5.046930 -14.044393 0.000000 0.000000 0.000000 -4.981907 12.711840 -87.874859 -2.975479 -10.655024 31.125264 0.493482 -12.416141 -6.128475 -1.170164 -6.866438 19.320154 8.840233 3.991707 36.721118 13.734481 8.649182 17.306163 7.158672 3.990762 -0.168885 -7.383996 -11.511538 -16.262835 2.156908 -14.547832 -6.891410 0.976965 -7.328522 1.159705 0.000000 0.000000 0.000000 8.766224 -20.330005 -87.572542 35.857862 -45.414988 15.421203 55.322519 45.701248 -16.657369 0.000000 0.000000 0.000000 -7.125000 0.000000 0.000000 30.691729 54.940784 -8.058351 0.000000 0.000000 0.000000 -127.070752 -49.988345 -44.955815 -10.497497 -17.513962 -1.621454 -31.617718 4.090476 -11.226651 0.000000 0.000000 0.000000 7.125000 0.000000 0.000000 -3.119612 16.865807 -2.091300
-1.900171 17.523525 -2.083969 15.946163 25.988676 69.571191 0.000000 0.000000 0.000000 -2.305947 -12.477748 -34.728596 3.195913 11.005559 32.298761 0.394542 -2.543567 13.071452 0.716209 -5.407819 -15.075631 0.000000 0.000000 0.000000 -5.111086 12.676622 -87.372872 -2.918076 -10.561038 30.813443 0.515801 -12.666520 -6.042503 -1.184685 -6.907402 19.441323 8.825267 3.901346 36.656065 13.645162 8.531326 17.276802 7.112169 3.944206 -0.155549 -7.419055 -11.482544 -16.143728 2.272858 -14.509675 -6.984705 1.030884 -7.304599 1.120679 0.000000 0.000000 0.000000 8.763946 -20.216284 -87.340592 35.718282 -45.318231 15.321860 55.053053 44.581770 -16.156656 0.000000 0.000000 0.000000 -7.125000 0.000000 0.000000 29.990655 54.164714 -7.256807 0.000000 0.000000 0.000000 -125.967310 -50.284468 -43.473398 -10.476497 -17.481449 -1.615149 -30.198004 3.007165 -10.125649 0.000000 0.000000 0.000000 7.125000 0.000000 0.000000 -2.236364 18.305443 -1.428834
-1.893625 17.543867 -2.088256 16.057548 25.953948 69.307297 0.000000 0.000000 0.000000 -2.523515 -12.419587 -34.303113 3.136238 10.912284 31.984769 0.399870 -2.381560 13.055614 0.710047 -5.384229 -15.008103 0.000000 0.000000 0.000000 -5.265597 12.652719 -86.796294 -2.859010 -10.463033 30.489598 0.535001 -12.882924 -6.018103 -1.249146 -7.083239 19.963540 8.825138 3.808538 36.585903 13.564377 8.415228 17.249031 7.067053 3.899146 -0.138145 -7.442914 -11.470948 -15.998129 2.358548 -14.501669 -7.121712 1.074519 -7.296863 1.059848 0.000000 0.000000 0.000000 8.784229 -20.099597 -87.152555 35.662437 -45.279407 15.282166 54.839635 43.372399 -15.648314 0.000000 0.000000 0.000000 -7.125000 0.000000 0.000000 29.382069 53.393951 -6.509769 0.000000 0.000000 0.000000 -124.817176 -50.588645 -42.171142 -10.422032 -17.396973 -1.598814 -28.764857 2.099658 -9.187825 0.000000 0.000000 0.000000 7.125000 0.000000 0.000000 -1.298762 19.522723 -0.796626
-1.885478 17.566027 -2.093088 16.150970 25.978356 69.025641 0.000000 0.000000 0.000000 -2.652553 -12.424373 -33.912076 3.085728 10.832350 31.716752 0.403515 -2.235733 13.026030 0.683312 -5.284974 -14.723248 0.000000 0.000000 0.000000 -5.384343 12.623637 -86.189465 -2.798894 -10.361995 30.157180 0.550871 -13.060083 -5.996088 -1.307021 -7.241684 20.433710 8.886942 3.709738 36.504570 13.505284 8.312855 17.203308 7.008938 3.862023 -0.131649 -7.441215 -11.476677 -15.883161 2.416430 -14.516278 -7.142649 1.097987 -7.302422 1.039922 0.000000 0.000000 0.000000 8.781480 -20.003150 -87.052026 35.645486 -45.267608 15.270119 54.615789 42.222032 -15.257928 0.000000 0.000000 0.000000 -7.125000 0.000000 0.000000 28.851393 52.781294 -5.922149 0.000000 0.000000 0.000000 -123.553928 -50.805459 -40.542518 -10.398431 -17.360386 -1.591754 -27.422949 1.030429 -8.318419 0.000000 0.000000 0.000000 7.125000 0.000000 0.000000 -0.395389 20.623046 -0.235708
-1.876215 17.586534 -2.099301 16.252546 26.013537 68.766340 0.000000 0.000000 0.000000 -2.771486 -12.478969 -33.574235 3.041047 10.761080 31.478398 0.400044 -2.204521 12.958526 0.698548 -5.342582 -14.888352 0.000000 0.000000 0.000000 -5.428808 12.561206 -85.622397 -2.739395 -10.260639 29.825034 0.557182 -13.125584 -5.933011 -1.215656 -6.990435 19.688536 8.941552 3.622890 36.399623 13.459389 8.223220 17.137595 6.963247 3.829875 -0.144488 -7.466898 -11.488178 -15.823162 2.509815 -14.523692 -7.012920 1.128353 -7.303663 1.085419 0.000000 0.000000 0.000000 8.729636 -19.922058 -87.028428 35.578391 -45.220709 15.222498 54.390826 41.077102 -14.930281 0.000000 0.000000 0.000000 -7.125000 0.000000 0.000000 28.370704 52.254735 -5.425990 0.000000 0.000000 0.000000 -122.128282 -50.997850 -38.708237 -10.401179 -17.364669 -1.592604 -26.471412 -0.216878 -7.503213 0.000000 0.000000 0.000000 7.125000 0.000000 0.000000 0.249113 21.608690 0.138163
-1.867258 17.605289 -2.106696 16.385746 26.027298 68.537363 0.000000 0.000000 0.000000 -2.915817 -12.538381 -33.292856 3.000581 10.695978 31.261277 0.404697 -1.968028 12.899548 0.662812 -5.201336 -14.484854 0.000000 0.000000 0.000000 -5.431231 12.470242 -85.098437 -2.681476 -10.160461 29.498064 0.563891 -13.216751 -6.131075 -1.279285 -7.133691 20.127062 8.943615 3.556804 36.274779 13.422223 8.142531 17.063844 6.949550 3.799453 -0.170949 -7.514314 -11.494434 -15.774347 2.592375 -14.519168 -6.886693 1.159223 -7.298228 1.131803 0.000000 0.000000 0.000000 8.647121 -19.802292 -87.065885 35.489571 -45.158584 15.159461 54.233893 39.770830 -14.533093 0.000000 0.000000 0.000000 -7.125000 0.000000 0.000000 27.945428 51.650604 -4.898666 0.000000 0.000000 0.000000 -120.546756 -51.318622 -37.444127 -10.346751 -17.280134 -1.576408 -25.959622 -0.946892 -6.822735 0.000000 0.000000 0.000000 7.125000 0.000000 0.000000 0.593792 22.399436 0.321678
-1.859205 17.625469 -2.114440 16.530908 26.014244 68.301316 0.000000 0.000000 0.000000 -3.112089 -12.493936 -33.080743 2.964965 10.638114 31.068851 0.422628 -1.527246 12.931469 0.556431 -4.776334 -13.272019 0.000000 0.000000 0.000000 -5.476784 12.381675 -84.565166 -2.624763 -10.061072 29.174985 0.578078 -13.392456 -6.304901 -1.451611 -7.554818 21.398292 8.892695 3.511411 36.139015 13.386007 8.068431 16.999544 6.961776 3.770357 -0.192717 -7.519200 -11.486381 -15.742730 2.617086 -14.503932 -6.829328 1.168467 -7.288771 1.148433 0.000000 0.000000 0.000000 8.574177 -19.647033 -87.066953 35.435234 -45.120399 15.120945 54.075653 38.419334 -14.062569 0.000000 0.000000 0.000000 -7.125000 0.000000 0.000000 27.489860 50.942363 -4.306500 0.000000 0.000000 0.000000 -118.891370 -51.715135 -36.656671 -10.248719 -17.127718 -1.547464 -25.544813 -1.072824 -6.157585 0.000000 0.000000 0.000000 7.125000 0.000000 0.000000 0.875869 23.160613 0.459707
